<?xml version="1.0" encoding="iso-8859-1"?>
<!-- Generator: Adobe Illustrator 19.0.0, SVG Export Plug-In . SVG Version: 6.00 Build 0)  -->
<svg version="1.1" id="Capa_1" xmlns="http://www.w3.org/2000/svg" xmlns:xlink="http://www.w3.org/1999/xlink" x="0px" y="0px"
	 viewBox="0 0 496 496" style="enable-background:new 0 0 496 496;" xml:space="preserve">
<path style="fill:#8C95A4;" d="M384,184V40c0-17.672-14.328-32-32-32H144c-17.672,0-32,14.328-32,32v48v192v176
	c0,17.672,14.328,32,32,32h208c17.672,0,32-14.328,32-32v-64V184z"/>
<rect x="112" y="56" style="fill:#39C3FC;" width="272" height="368"/>
<path style="fill:#148CE0;" d="M350.928,160l-8.344,24.024c-0.944,0.376-1.888,0.768-2.832,1.168l-22.88-11.088l-46.768,46.768
	l11.088,22.88c-0.408,0.936-0.8,1.88-1.168,2.832L256,254.928v66.144l24.024,8.344c0.376,0.944,0.768,1.888,1.168,2.832
	l-11.088,22.88l46.768,46.768l22.88-11.088c0.936,0.408,1.88,0.8,2.832,1.168L350.928,416H384V160H350.928z"/>
<path style="fill:#FEA82F;" d="M488,304v-32l-19.04-6.616c-2.024-7.616-5.016-14.824-8.888-21.488l8.784-18.128l-22.624-22.624
	l-18.128,8.784c-6.656-3.872-13.864-6.864-21.488-8.888L400,184h-32l-6.616,19.04c-7.616,2.024-14.824,5.016-21.488,8.888
	l-18.128-8.784l-22.624,22.624l8.784,18.128c-3.872,6.656-6.864,13.864-8.888,21.488L280,272v32l19.04,6.616
	c2.024,7.616,5.016,14.824,8.888,21.488l-8.784,18.128l22.624,22.624l18.128-8.784c6.656,3.872,13.864,6.864,21.488,8.888L368,392
	h32l6.616-19.04c7.616-2.024,14.824-5.016,21.488-8.888l18.128,8.784l22.624-22.624l-8.784-18.128
	c3.872-6.664,6.864-13.864,8.888-21.488L488,304z"/>
<circle style="fill:#FCD770;" cx="384" cy="288" r="56"/>
<g>
	<circle style="fill:#ECECEC;" cx="384" cy="288" r="24"/>
	<circle style="fill:#ECECEC;" cx="384" cy="288" r="24"/>
</g>
<rect x="8" y="88" style="fill:#48C397;" width="240" height="192"/>
<path style="fill:#ECECEC;" d="M181.32,168.536l2.112-0.536c-3.88-27.136-27.224-48-55.432-48s-51.488,20.872-55.376,48
	l-0.104,0.752C54.016,172.264,40,188.472,40,208c0,22.088,17.912,40,40,40h96c22.088,0,40-17.912,40-40
	C216,187.728,200.872,171.16,181.32,168.536z"/>
<rect x="8" y="256" style="fill:#0FA196;" width="240" height="24"/>
<rect x="216" y="448" width="64" height="16"/>
<path d="M384,224c-35.288,0-64,28.712-64,64s28.712,64,64,64c17.096,0,33.168-6.656,45.256-18.744l-11.312-11.312
	C408.88,331.008,396.824,336,384,336c-26.472,0-48-21.528-48-48s21.528-48,48-48s48,21.528,48,48c0,8.472-2.232,16.792-6.464,24.072
	l13.832,8.032C445.016,310.392,448,299.288,448,288C448,252.712,419.288,224,384,224z"/>
<path d="M496,309.696v-43.392l-20.512-7.12c-1.68-5.368-3.832-10.56-6.416-15.52l9.456-19.52l-30.672-30.672l-19.528,9.464
	c-4.952-2.576-10.144-4.728-15.512-6.424L405.688,176H392V40c0-22.056-17.944-40-40-40H144c-22.056,0-40,17.944-40,40v40H0v208h104
	v168c0,22.056,17.944,40,40,40h208c22.056,0,40-17.944,40-40v-56h13.688l7.128-20.504c5.368-1.696,10.56-3.84,15.512-6.424
	l19.528,9.464l30.672-30.672l-9.456-19.52c2.584-4.96,4.728-10.16,6.416-15.52L496,309.696z M144,16h208c13.232,0,24,10.768,24,24v8
	H120v-8C120,26.768,130.768,16,144,16z M16,96h224v176H16V96z M352,480H144c-13.232,0-24-10.768-24-24v-24h256v24
	C376,469.232,365.232,480,352,480z M376,416H120V288h136V80H120V64h256v112h-13.688l-7.128,20.504
	c-5.368,1.696-10.56,3.84-15.512,6.424l-19.528-9.464l-30.672,30.672l9.456,19.52c-2.584,4.96-4.728,10.16-6.416,15.52L272,266.304
	v43.392l20.512,7.12c1.68,5.368,3.832,10.56,6.416,15.52l-9.456,19.52l30.672,30.672l19.528-9.464
	c4.952,2.576,10.144,4.728,15.512,6.424L362.312,400H376V416z M462.32,304.448l-1.088,4.112c-1.832,6.88-4.544,13.456-8.072,19.528
	l-2.136,3.672l8.16,16.832l-14.576,14.576l-16.832-8.16l-3.672,2.136c-6.072,3.528-12.648,6.248-19.528,8.088l-4.104,1.096
	L394.312,384h-20.616l-6.144-17.672l-4.104-1.096c-6.88-1.832-13.456-4.552-19.528-8.088l-3.672-2.136l-16.832,8.16l-14.576-14.576
	L317,331.76l-2.136-3.672c-3.528-6.08-6.248-12.648-8.072-19.528l-1.088-4.112L288,298.304v-20.608l17.68-6.144l1.088-4.112
	c1.832-6.88,4.544-13.456,8.072-19.528l2.136-3.672l-8.16-16.832l14.576-14.576l16.832,8.16l3.672-2.136
	c6.072-3.528,12.648-6.248,19.528-8.088l4.104-1.096l6.16-17.672h20.616l6.144,17.672l4.104,1.096
	c6.88,1.832,13.456,4.552,19.528,8.088l3.672,2.136l16.832-8.16l14.576,14.576L451,244.24l2.136,3.672
	c3.528,6.08,6.248,12.648,8.072,19.528l1.088,4.112L480,277.696v20.608L462.32,304.448z"/>
<path d="M384,272c8.824,0,16,7.176,16,16h16c0-17.648-14.352-32-32-32s-32,14.352-32,32s14.352,32,32,32v-16
	c-8.824,0-16-7.176-16-16S375.176,272,384,272z"/>
<path d="M96,176h16c0-8.824,7.176-16,16-16v-16C110.352,144,96,158.352,96,176z"/>
<path d="M190.512,162.24C184.152,133.288,158.064,112,128,112c-29.808,0-55.704,20.984-62.4,50.248C45.832,168.456,32,186.88,32,208
	c0,26.472,21.528,48,48,48h96c26.472,0,48-21.528,48-48C224,186.584,209.912,168.408,190.512,162.24z M176,240H80
	c-17.648,0-32-14.352-32-32c0-15.328,10.944-28.528,26.008-31.392l5.72-1.824l0.808-5.656C83.904,145.688,104.304,128,128,128
	c20.56,0,38.648,13.272,45.288,32.08c-9.488,0.512-18.456,3.792-26.096,9.52l9.608,12.8c5.568-4.192,12.208-6.4,19.2-6.4
	c17.648,0,32,14.352,32,32S193.648,240,176,240z"/>
<g>
</g>
<g>
</g>
<g>
</g>
<g>
</g>
<g>
</g>
<g>
</g>
<g>
</g>
<g>
</g>
<g>
</g>
<g>
</g>
<g>
</g>
<g>
</g>
<g>
</g>
<g>
</g>
<g>
</g>
</svg>
